<?xml version="1.0" standalone="no"?>
<!DOCTYPE svg PUBLIC "-//W3C//DTD SVG 20010904//EN"
 "http://www.w3.org/TR/2001/REC-SVG-20010904/DTD/svg10.dtd">
<svg version="1.0" xmlns="http://www.w3.org/2000/svg"
 width="714.000000pt" height="714.000000pt" viewBox="0 0 714.000000 714.000000"
 preserveAspectRatio="xMidYMid meet">
<metadata>
Created by potrace 1.14, written by Peter Selinger 2001-2017
</metadata>
<g transform="translate(0.000000,714.000000) scale(0.100000,-0.100000)"
fill="#000000" stroke="none">
<path d="M3338 7124 c-6 -5 -18 -7 -108 -18 -253 -32 -540 -108 -835 -223
-202 -79 -578 -267 -745 -374 -14 -9 -74 -46 -134 -84 -198 -124 -409 -277
-721 -519 -273 -213 -387 -297 -452 -338 l-60 -36 3 -99 c3 -107 13 -285 19
-348 2 -22 7 -76 10 -120 3 -44 7 -89 9 -100 2 -11 7 -51 10 -90 4 -38 8 -81
10 -95 3 -14 7 -47 11 -75 5 -42 29 -192 51 -319 4 -25 34 -173 49 -246 42
-199 183 -675 245 -825 7 -16 16 -39 21 -50 128 -320 263 -594 422 -860 83
-138 311 -468 385 -557 11 -12 55 -66 98 -118 77 -94 96 -115 204 -234 231
-252 558 -550 867 -787 251 -193 323 -244 588 -420 99 -65 191 -127 205 -136
53 -38 79 -44 113 -26 56 28 601 394 617 413 3 3 39 30 80 59 306 220 741 605
1005 892 112 122 131 144 226 259 388 473 671 957 894 1530 62 160 148 419
180 546 41 156 85 334 89 354 2 14 14 70 25 125 19 98 54 306 66 395 3 25 8
56 10 70 2 14 6 54 10 90 4 36 8 76 10 90 12 84 31 377 39 603 3 75 2 78 -24
97 -16 11 -31 20 -34 20 -14 0 -255 179 -401 298 -11 10 -47 37 -80 62 -33 25
-62 47 -65 51 -14 15 -294 219 -429 313 -272 188 -479 310 -751 442 -85 42
-163 80 -173 85 -39 21 -297 118 -387 147 -200 63 -457 123 -593 137 -32 4
-68 9 -80 13 -28 8 -492 14 -499 6z"/>
</g>
</svg>
